<svg xmlns="http://www.w3.org/2000/svg">
	<symbol id="cube" viewBox="0 0 674.7 766.8">
		<g fill="var(--color1)">
			<path d="M671.8 403 514.2 490.3l-2.6 179.3L669.1 582.2Z" />
			<path d="M496.4 500.2 338.8 587.6 336.2 766.8l157.5-87.3Z" />
			<path d="M322.4 585l-151.3-91.5-2.6 176.8 151.3 91.5Z" />
			<path d="M0 568.4 151.4 659.9l2.6-176.8-151.3-91.5Z" />
			<path d="M674.7 203.4 517.2 290.7 514.6 469.9l157.5-87.3Z" />
		</g>
		<g fill="var(--color2)">
			<path d="M489.5 489.4 336.6 397l-157 87 152.9 92.4Z" />
			<path d="M331 204.5 173.4 291.8l-2.6 179.3L328.4 383.7Z" />
			<path d="M2.9 371.5l151.3 91.5 2.6-176.8-151.3-91.5Z" />
			<path d="M669.2 195.4 516.3 103l-157 87L512.1 282.4Z" />
			<path d="M498.9 92.4 346.1 0l-157 87 152.9 92.4Z" />
			<path d="M167 276.4l157-87L171.2 96.9l-157 87Z" />
		</g>
	</symbol>
	<symbol id="text" viewBox="0 0 1427.26 180.72">
		<g>
			<path
				d="M1366.83,196.22q-11.28-20.88-20.64-39.24t-16.08-32.76q-6.72-14.4-10.32-24t-3.6-12.48a11.77,11.77,0,0,1,3.37-8.52q3.35-3.48,10.31-3.48a29.77,29.77,0,0,1,8.28,1,12.87,12.87,0,0,1,3.72,1.44q4.8,13,10.32,26.28t10.92,25.2q5.42,11.88,10.08,21.6t7.8,16q4.56-8.64,9.84-20.4T1401,123.5q4.92-11.52,8.88-21c2.65-6.32,4.52-10.92,5.65-13.8a28.83,28.83,0,0,1,5.75-9.48q3.36-3.48,10.56-3.48,6.72,0,10.92,2.28a38.8,38.8,0,0,1,4.69,2.76q-1.44,5-4.92,13.8t-8.41,19.56q-4.92,10.8-10.55,22.56t-11.17,22.92q-5.52,11.16-10.44,20.76t-8.27,15.84Z"
				transform="translate(-20.21 -19.34)" />
			<path
				d="M1304.43,187.34q-1.92,1.2-6,3.36a61.25,61.25,0,0,1-10.2,4.08,116,116,0,0,1-14.16,3.36,100.29,100.29,0,0,1-17.64,1.44,75.3,75.3,0,0,1-25.08-4.08,58.35,58.35,0,0,1-20.4-12.12,57.12,57.12,0,0,1-13.8-19.68q-5-11.64-5-26.76a68,68,0,0,1,4.92-26.28,60.23,60.23,0,0,1,13.68-20.4,61.66,61.66,0,0,1,20.64-13.2,70.44,70.44,0,0,1,26-4.68,69,69,0,0,1,22.08,3.24,51.12,51.12,0,0,1,16.2,8.64,35.34,35.34,0,0,1,13.32,28,36.3,36.3,0,0,1-3.12,15.24q-3.12,6.84-11,11.76t-21.36,7.68q-13.44,2.76-34.08,2.76-4.8,0-9-.12t-9-.36a29.82,29.82,0,0,0,11.88,19.8q10,7.56,28.44,7.56a64.51,64.51,0,0,0,11.52-1,65.41,65.41,0,0,0,9.48-2.4,67.17,67.17,0,0,0,7.2-2.88q3-1.44,4.44-2.16Zm-84.24-56.88q5.52.24,10.56.24h10.08a109.71,109.71,0,0,0,21.36-1.68,43.34,43.34,0,0,0,12.72-4.32q4.56-2.64,6-6a17.5,17.5,0,0,0,1.44-7q0-9.12-7.32-13.68t-18.12-4.56a36.69,36.69,0,0,0-15.6,3.12A33.85,33.85,0,0,0,1230,104.9a37.8,37.8,0,0,0-7.08,11.88A43,43,0,0,0,1220.19,130.46Z"
				transform="translate(-20.21 -19.34)" />
			<path
				d="M491.09,32.06c0-4.32,1.23-7.52,3.72-9.6s6-3.12,10.67-3.12a27.43,27.43,0,0,1,7.92,1.08c2.41.72,4,1.24,4.81,1.56V130.22q0,17.52-4.93,30.48a60.44,60.44,0,0,1-13.55,21.6,55.61,55.61,0,0,1-20.41,13,73.94,73.94,0,0,1-25.68,4.32,68.88,68.88,0,0,1-26-4.8,62.8,62.8,0,0,1-20.51-13.2,60,60,0,0,1-13.57-20.16A65.25,65.25,0,0,1,388.6,136a68.11,68.11,0,0,1,4.68-25.56,61.64,61.64,0,0,1,13-20.16,58.28,58.28,0,0,1,19.44-13.2,62.41,62.41,0,0,1,24.37-4.68q13.9,0,24.47,5.4a48.83,48.83,0,0,1,16.57,13.08Zm0,103.92a42.55,42.55,0,0,0-2.77-15.36,39.34,39.34,0,0,0-7.55-12.48,34.12,34.12,0,0,0-11.64-8.28,39.3,39.3,0,0,0-30.12,0A36.34,36.34,0,0,0,427.36,108a35.07,35.07,0,0,0-7.55,12.36,44.74,44.74,0,0,0-2.64,15.6,43.75,43.75,0,0,0,2.64,15.48,35.28,35.28,0,0,0,7.55,12.24,36,36,0,0,0,26.77,11.16,38.34,38.34,0,0,0,15-2.88,34.34,34.34,0,0,0,11.64-7.92,36.52,36.52,0,0,0,7.55-12.24A43.91,43.91,0,0,0,491.09,136Z"
				transform="translate(-20.21 -19.34)" />
			<path
				d="M978.76,181.1a18.08,18.08,0,0,1,1.44-7.2,18.58,18.58,0,0,1,4-5.88,18.24,18.24,0,0,1,6-4,18.92,18.92,0,0,1,7.32-1.44A18.44,18.44,0,0,1,1016,181.1a19,19,0,0,1-1.44,7.32,18.24,18.24,0,0,1-4,6,20.56,20.56,0,0,1-5.88,4.08,17,17,0,0,1-7.2,1.56,17.85,17.85,0,0,1-13.2-5.64A18.37,18.37,0,0,1,978.76,181.1Z"
				transform="translate(-20.21 -19.34)" />
			<path
				d="M883,118.7q0-22.08,13.56-34.2t37.56-12.12q15.12,0,24.6,4.2t9.48,12.84a15.32,15.32,0,0,1-2.28,7.92q-2.28,3.84-3.72,4.8a65.39,65.39,0,0,0-10.08-3.6,50.82,50.82,0,0,0-13.68-1.68q-28.08,0-28.08,29.76v69.6H883Z"
				transform="translate(-20.21 -19.34)" />
			<path
				d="M854.92,195.74q-2.4.48-7.56,1.08c-3.44.39-7.48.8-12.12,1.2s-9.84.75-15.6,1.08-11.76.48-18,.48q-18.72,0-30.6-3.24t-18.72-8.64A27.77,27.77,0,0,1,743,175.22a43,43,0,0,1-2.52-14.52,46,46,0,0,1,3-17.28,28.61,28.61,0,0,1,9.84-12.48q6.84-5,17.88-7.56A122.75,122.75,0,0,1,798,120.86q9.12,0,17.28.6t12.24,1.08q0-8.4-2.76-13.92a21.53,21.53,0,0,0-7.56-8.64,30.87,30.87,0,0,0-11.52-4.32,84.93,84.93,0,0,0-14.88-1.2q-13.68,0-22,3.12T758,102.86a29.3,29.3,0,0,1-4-4.56,13.21,13.21,0,0,1-2.52-8.16,13.45,13.45,0,0,1,1.8-6.6,15.6,15.6,0,0,1,6.36-5.76,41.44,41.44,0,0,1,12.24-4,108.44,108.44,0,0,1,19.44-1.44,111.92,111.92,0,0,1,25.8,2.76,56.51,56.51,0,0,1,20,8.76,40.37,40.37,0,0,1,13.08,15.84q4.68,9.84,4.68,23.76ZM827.8,142.46q-2.4-.48-9-1.44a149.66,149.66,0,0,0-19.8-1q-16.32,0-23.76,4.92t-7.44,15.48a19.71,19.71,0,0,0,1.56,7.92,14,14,0,0,0,5.4,6.12,29.74,29.74,0,0,0,10.44,3.84,85.78,85.78,0,0,0,16.44,1.32,143.2,143.2,0,0,0,17.52-.84q6.48-.84,8.64-1.32Z"
				transform="translate(-20.21 -19.34)" />
			<path d="M689.8,32.06q0-6.48,3.84-9.6t10.8-3.12a27.48,27.48,0,0,1,7.92,1.08q3.6,1.08,4.8,1.56V196.22H689.8Z"
				transform="translate(-20.21 -19.34)" />
			<path
				d="M543.4,88.46q0-6.72,3.84-9.72t10.81-3A27.53,27.53,0,0,1,566,76.82q3.59,1.08,4.8,1.56V141.5q0,16.32,7.67,24.84T602,174.86q15.82,0,23.51-8.52t7.69-24.84v-53c0-4.48,1.27-7.72,3.84-9.72s6.07-3,10.55-3a28.51,28.51,0,0,1,8.17,1.08c2.4.72,4,1.24,4.79,1.56V147.5a54.85,54.85,0,0,1-4.2,22,44.88,44.88,0,0,1-12,16.44,53,53,0,0,1-18.59,10.2,82.85,82.85,0,0,1-47.52,0,51.7,51.7,0,0,1-18.48-10.2,46.52,46.52,0,0,1-12-16.44,53.53,53.53,0,0,1-4.33-22Z"
				transform="translate(-20.21 -19.34)" />
			<path
				d="M1144.83,32.06q0-6.48,3.72-9.6t10.68-3.12a27.48,27.48,0,0,1,7.92,1.08q3.6,1.08,4.8,1.56V130.22q0,17.52-4.92,30.48a60.32,60.32,0,0,1-13.56,21.6,55.57,55.57,0,0,1-20.4,13,73.94,73.94,0,0,1-25.68,4.32,68.88,68.88,0,0,1-26-4.8,62.85,62.85,0,0,1-20.52-13.2,60.09,60.09,0,0,1-13.56-20.16,65.25,65.25,0,0,1-4.92-25.44,67.91,67.91,0,0,1,4.68-25.56,61.48,61.48,0,0,1,13-20.16,58.18,58.18,0,0,1,19.44-13.2,62.36,62.36,0,0,1,24.36-4.68q13.92,0,24.48,5.4a48.69,48.69,0,0,1,16.56,13.08Zm0,103.92a42.54,42.54,0,0,0-2.76-15.36,39.18,39.18,0,0,0-7.56-12.48,33.93,33.93,0,0,0-11.64-8.28,39.3,39.3,0,0,0-30.12,0,36.41,36.41,0,0,0-11.64,8.16,35.24,35.24,0,0,0-7.56,12.36,45,45,0,0,0-2.64,15.6,44,44,0,0,0,2.64,15.48,35.46,35.46,0,0,0,7.56,12.24,35.91,35.91,0,0,0,26.76,11.16,38.27,38.27,0,0,0,15-2.88,34.14,34.14,0,0,0,11.64-7.92,36.38,36.38,0,0,0,7.56-12.24A43.91,43.91,0,0,0,1144.83,136Z"
				transform="translate(-20.21 -19.34)" />
			<path
				d="M304.37,72.38a70.11,70.11,0,0,1,26,4.8,64.1,64.1,0,0,1,21,13.32,61.6,61.6,0,0,1,13.92,20.16,65.52,65.52,0,0,1,0,50.4,61.6,61.6,0,0,1-13.92,20.16,65.73,65.73,0,0,1-21,13.44,71.37,71.37,0,0,1-52.08,0,65.51,65.51,0,0,1-21-13.44,61.45,61.45,0,0,1-13.92-20.16,65.52,65.52,0,0,1,0-50.4A61.45,61.45,0,0,1,257.33,90.5a63.9,63.9,0,0,1,21-13.32A70,70,0,0,1,304.37,72.38Zm0,103a37.79,37.79,0,0,0,15.12-3,34.13,34.13,0,0,0,11.88-8.4,40,40,0,0,0,7.68-12.48A42.26,42.26,0,0,0,341.81,136a44.19,44.19,0,0,0-2.76-15.72,38,38,0,0,0-7.68-12.6,34.9,34.9,0,0,0-11.88-8.28,39.9,39.9,0,0,0-30.36,0,35.1,35.1,0,0,0-11.76,8.28,37.65,37.65,0,0,0-7.68,12.6A44.19,44.19,0,0,0,266.93,136a42.26,42.26,0,0,0,2.76,15.48,39.63,39.63,0,0,0,7.68,12.48,34.31,34.31,0,0,0,11.76,8.4A37.55,37.55,0,0,0,304.37,175.34Z"
				transform="translate(-20.21 -19.34)" />
			<path
				d="M20.21,118.7a46.75,46.75,0,0,1,4.08-20.16,40.64,40.64,0,0,1,11.16-14.4,49.51,49.51,0,0,1,16.68-8.76,69.69,69.69,0,0,1,20.88-3A62,62,0,0,1,99.65,77.9a44.12,44.12,0,0,1,18.72,16.32A44.44,44.44,0,0,1,136.85,77.9,59.8,59.8,0,0,1,163,72.38a71.5,71.5,0,0,1,20.64,2.88,46.65,46.65,0,0,1,16.56,8.64,41.27,41.27,0,0,1,11,14.4,46.75,46.75,0,0,1,4.08,20.16v77.76H188v-68.4q0-16.56-7.44-23.64T160.37,97.1q-12.24,0-20.52,7.92t-8.28,25.68v65.52H104.21V130.7q0-17.76-8.28-25.68T75.41,97.1q-12.48,0-20.16,7.2t-7.68,23.76v68.16H20.21Z"
				transform="translate(-20.21 -19.34)" />
		</g>
	</symbol>
</svg>